<!-- Generator: Adobe Illustrator 20.1.0, SVG Export Plug-In  -->
<svg version="1.1"
	 xmlns="http://www.w3.org/2000/svg" xmlns:xlink="http://www.w3.org/1999/xlink" xmlns:a="http://ns.adobe.com/AdobeSVGViewerExtensions/3.0/"
	 x="0px" y="0px" width="285.3px" height="52.5px" viewBox="0 0 285.3 52.5" style="enable-background:new 0 0 285.3 52.5;"
	 xml:space="preserve">
<defs>
</defs>
<g>
	<path d="M0,51.5V0.9h24.9c9.2,0,14.4,5.8,14.4,12.9c0,6.4-4.1,10.6-8.8,11.6c5.4,0.8,9.8,6.2,9.8,12.4c0,7.8-5.2,13.6-14.7,13.6H0z
		 M30.2,15.3c0-3.8-2.6-6.6-7.1-6.6H8.9v13.1H23C27.6,21.9,30.2,19.1,30.2,15.3z M31.1,36.6c0-3.8-2.7-7-7.7-7H8.9v14h14.5
		C28.3,43.7,31.1,41,31.1,36.6z"/>
	<path d="M77.9,51.5L66.7,32.6h-8.8v18.9h-8.9V0.9h22.2c10,0,16.5,6.5,16.5,15.8c0,9-5.9,13.9-12,14.9l12.4,19.9H77.9z M78.7,16.8
		c0-4.8-3.6-8-8.6-8H57.9v16.1h12.1C75.1,24.8,78.7,21.6,78.7,16.8z"/>
	<path d="M96.6,51.5V0.9h8.9v50.5H96.6z"/>
	<path d="M187.9,51.5h-72.4V38.6c0-18.2,6.3-38.6,36.3-38.6s36.1,20.5,36.1,38.6V51.5z M151.8,7.7c-23,0-27.3,16.5-27.3,30.1v5.9
		h54.4v-5.9C178.9,24.3,174.8,7.7,151.8,7.7z"/>
	<path d="M194.1,26.2c0-15.8,11.9-26.1,26.5-26.1c9.8,0,16.3,4.7,20.4,10.5l-7.3,4.1C231,10.9,226.3,8,220.6,8
		c-10,0-17.4,7.7-17.4,18.3c0,10.6,7.4,18.3,17.4,18.3c5.2,0,9.7-2.4,12-4.5v-7.9h-15.1v-7.8h23.9v18.9c-5,5.5-12.1,9.2-20.8,9.2
		C206,52.5,194.1,42.1,194.1,26.2z"/>
	<path d="M250.6,51.5V0.9h34.6v7.8h-25.8v13.1h25.2v7.8h-25.2v14h25.8v7.8H250.6z"/>
</g>
</svg>
