<!-- Generator: Adobe Illustrator 20.1.0, SVG Export Plug-In  -->
<svg version="1.1"
	 xmlns="http://www.w3.org/2000/svg" xmlns:xlink="http://www.w3.org/1999/xlink" xmlns:a="http://ns.adobe.com/AdobeSVGViewerExtensions/3.0/"
	 x="0px" y="0px" width="46.1px" height="32.1px" viewBox="0 0 46.1 32.1" style="enable-background:new 0 0 46.1 32.1;"
	 xml:space="preserve">
<style type="text/css">
	.st0{fill:#231F20;}
</style>
<defs>
</defs>
<path class="st0" d="M45.5,7.1C44.9,2.1,42.4,0,37,0h-1.6H10.6H9C3.6,0,1.1,2.1,0.5,7.1c-0.6,5.3-0.8,11.3,0,17.9
	c0.9,7.4,5.9,7.1,8.5,7.1c0.3,0,0.8,0,1.6,0c6.6,0,24.8,0,24.8,0c0.8,0,1.4,0,1.6,0c2.6,0,7.6,0.2,8.5-7.1
	C46.3,18.4,46.1,12.5,45.5,7.1z M18.8,22.4V9.7l12.3,6.5L18.8,22.4z"/>
</svg>
