<!-- Generator: Adobe Illustrator 20.1.0, SVG Export Plug-In  -->
<svg version="1.1"
	 xmlns="http://www.w3.org/2000/svg" xmlns:xlink="http://www.w3.org/1999/xlink" xmlns:a="http://ns.adobe.com/AdobeSVGViewerExtensions/3.0/"
	 x="0px" y="0px" width="43.6px" height="43.6px" viewBox="0 0 43.6 43.6" style="enable-background:new 0 0 43.6 43.6;"
	 xml:space="preserve">
<style type="text/css">
	.st0{fill:#231F20;}
</style>
<defs>
</defs>
<g>
	<path class="st0" d="M31,0H12.6C5.7,0,0,5.6,0,12.6V31c0,6.9,5.6,12.6,12.6,12.6H31c6.9,0,12.6-5.6,12.6-12.6V12.6
		C43.6,5.7,38,0,31,0 M39.6,31.4c0,4.6-3.7,8.3-8.3,8.3H12.4c-4.6,0-8.3-3.7-8.3-8.3V12.5c0-4.6,3.7-8.3,8.3-8.3h18.8
		c4.6,0,8.3,3.7,8.3,8.3L39.6,31.4L39.6,31.4z"/>
	<path class="st0" d="M21.8,10.6c-6.2,0-11.3,5.1-11.3,11.3s5.1,11.3,11.3,11.3c6.3,0,11.3-5,11.3-11.3
		C33.1,15.7,28.1,10.6,21.8,10.6 M21.8,29.3c-4,0-7.3-3.3-7.3-7.3s3.3-7.3,7.3-7.3s7.3,3.3,7.3,7.3C29.2,26,25.9,29.3,21.8,29.3"/>
	<path class="st0" d="M33.5,7.6c-1.5,0-2.6,1.2-2.6,2.6c0,1.5,1.2,2.6,2.6,2.6c1.5,0,2.6-1.2,2.6-2.6C36.1,8.7,35,7.6,33.5,7.6"/>
</g>
</svg>
